<svg height="512pt" preserveAspectRatio="xMidYMid meet" viewBox="0 0 512 512" width="512pt" xmlns="http://www.w3.org/2000/svg"><path d="m3665 5093c-47-25-3171-3140-3191-3181-9-19-118-397-242-841-242-866-247-891-207-960 36-61 88-94 154-99 53-4 139 19 877 228 489 138 836 242 861 256 84 48 121 170 78 256-10 18-117 133-238 256l-222 222 1123 1123 1122 1122 145-145 145-145-857-850c-608-604-861-861-874-890-68-148 65-307 227-273 59 12-44-87 1460 1408 1142 1135 1094 1083 1094 1176 0 76-29 109-647 726-413 413-609 602-635 613-48 19-135 19-173-2zm827-1485-142-143-440 440-440 440 142 142 143 143 440-440 440-440zm-1147 302 150-150-1123-1122-1122-1123-155 155-155 155 1117 1117c615 615 1123 1118 1128 1118 6 0 78-68 160-150zm-2247-2811 332-336-465-133c-257-72-468-130-470-128s50 195 115 428c65 234 123 444 130 468 6 24 14 42 18 40s157-154 340-339z" transform="matrix(.1 0 0 -.1 0 512)"/></svg>