<svg fill="none" height="24" viewBox="0 0 24 24" width="24" xmlns="http://www.w3.org/2000/svg"><g stroke="#000" stroke-linecap="round" stroke-width="2"><path d="m15 11h-3-3"/><path d="m14 19c3.7712 0 5.6569 0 6.8284-1.1716 1.1716-1.1715 1.1716-3.0572 1.1716-6.8284 0-3.77124 0-5.65685-1.1716-6.82843-1.1715-1.17157-3.0572-1.17157-6.8284-1.17157h-4c-3.77124 0-5.65685 0-6.82843 1.17157-1.17157 1.17158-1.17157 3.05719-1.17157 6.82843 0 3.7712 0 5.6569 1.17157 6.8284.65318.6532 1.52832.9422 2.82843 1.0701" stroke-linejoin="round"/><path d="m14 19c-1.2365 0-2.5978.4992-3.8414 1.145-1.99741 1.0371-2.99611 1.5557-3.48825 1.2253-.49215-.3305-.399-1.3552-.21269-3.4046l.04234-.4657"/></g></svg>