<svg height="512pt" preserveAspectRatio="xMidYMid meet" viewBox="0 0 512 512" width="512pt" xmlns="http://www.w3.org/2000/svg"><g transform="matrix(.1 0 0 -.1 0 512)"><path d="m2080 5104c-221-47-408-236-455-459-9-42-15-126-15-212v-142l-638-3-638-3-41-27c-63-41-88-90-88-169 0-54 5-72 27-106 15-22 44-51 65-64 34-22 52-24 176-27 126-4 137-5 137-23 0-57 242-3145 250-3199 48-298 252-531 553-634l92-31h1050 1050l78 23c201 58 376 190 476 360 91 154 131 357 87 445-39 78-137 122-223 98-94-25-131-71-158-201-8-40-27-95-42-122-37-68-129-151-200-180l-58-23h-1005-1005l-67 32c-37 17-90 52-116 78-51 47-105 142-116 205-5 28-246 3127-246 3161 0 5 646 9 1550 9 853 0 1550-3 1550-7 0-5-39-509-86-1122-95-1240-94-1171-24-1241 35-35 94-60 141-60 83 0 166 63 187 141 10 34 182 2188 182 2270 0 15 15 17 138 21 131 3 141 5 179 30 63 41 88 90 88 169 0 54-5 72-27 106-15 22-44 51-65 64l-38 24-637 3-638 3v142c0 86-6 170-15 212-47 225-235 413-460 460-98 21-859 20-955-1zm933-414c21-14 50-43 65-64 26-38 27-45 30-188l4-148h-551-551v128c0 70 5 143 10 164 13 44 81 115 124 127 17 6 208 9 432 8l400-2z"/><path d="m1590 3477c-49-16-104-75-119-128-10-37-4-239 39-1214l51-1170 25-53c71-146 277-145 349 2l27 55-52 1173c-31 717-56 1188-63 1213-30 100-148 157-257 122z"/><path d="m2492 3479c-45-13-108-80-121-126-7-26-11-417-11-1214v-1177l28-53c22-43 38-59 81-81 68-36 114-36 182 0 43 22 59 38 81 81l28 54-2 1196-3 1196-24 38c-47 76-151 113-239 86z"/><path d="m3390 3477c-46-15-103-74-117-122-7-25-32-496-63-1213l-52-1173 27-55c72-147 278-148 349-2l25 53 51 1170c56 1295 57 1228-10 1295-54 54-132 72-210 47z"/></g></svg>