<svg height="512pt" preserveAspectRatio="xMidYMid meet" viewBox="0 0 512 512" width="512pt" xmlns="http://www.w3.org/2000/svg"><g transform="matrix(.1 0 0 -.1 0 512)"><path d="m3025 4815c-432-79-793-351-990-745-20-41-38-76-40-78-1-1-36 11-78 28-123 49-212 63-367 58-116-5-148-10-230-36-231-76-418-238-525-455-68-138-87-222-92-414l-5-161-47-12c-25-6-84-29-129-51-241-112-410-309-489-566-23-78-26-105-27-233 0-118 4-160 21-226 45-169 126-306 252-427 149-142 321-218 535-237 186-16 263 11 314 110 28 56 28 114-1 170-44 87-118 120-267 120-114 0-225 47-313 134-120 118-173 303-131 461 23 90 63 161 125 225 94 96 185 136 362 158 92 12 138 41 175 112 21 42 22 56 22 270 0 246 8 299 58 400 34 69 132 170 197 202 99 50 149 60 258 56 92-3 109-7 179-40 45-21 101-59 136-91 81-74 115-91 183-91 114 1 165 57 209 229 69 274 225 483 460 620 161 93 323 131 527 122 143-5 255-33 366-88 224-112 406-313 487-536 45-126 60-231 60-432 1-244 6-256 145-346 173-111 286-269 336-465 20-79 18-269-4-350-69-256-261-451-520-528-93-28-132-57-164-120-22-44-25-61-20-105 12-98 98-177 193-177 90 0 284 76 419 164 331 216 535 616 511 1001-11 185-48 323-129 480-74 142-216 309-330 385l-37 25v100c0 359-110 665-334 927-185 216-460 380-746 443-106 24-408 29-515 10z"/><path d="m2405 2935c-27-8-84-31-125-51-70-34-99-61-429-393-229-231-360-370-372-396-54-115 26-261 150-273 109-10 98-18 424 306l297 296v-990-990l23-44c12-24 39-58 60-74 36-29 45-31 117-31s81 2 117 31c21 16 48 50 61 74l22 44v1000 1000l308-306c336-335 324-326 433-316 124 12 204 158 150 273-12 26-145 167-373 396-330 332-358 359-428 393-41 20-100 43-130 51-69 18-238 18-305 0z"/></g></svg>